<svg xmlns="http://www.w3.org/2000/svg" width="1200" height="620" viewBox="0 0 1200 620">
<rect width="100%" height="100%" fill="white"/>
<text x="60" y="38" font-family="Arial, sans-serif" font-size="26" font-weight="700" fill="#111827">RTX 5060 Ti 8G / 16G — 30 Day Price Trend</text>
<text x="60" y="61" font-family="Arial, sans-serif" font-size="14" fill="#6b7280">5-minute checks, charted as hourly minimum price</text>
<line x1="92" y1="542.0" x2="1162" y2="542.0" stroke="#e5e7eb" stroke-width="1"/>
<text x="80" y="547.0" text-anchor="end" font-family="Arial, sans-serif" font-size="13" fill="#6b7280">¥2700</text>
<line x1="92" y1="448.8" x2="1162" y2="448.8" stroke="#e5e7eb" stroke-width="1"/>
<text x="80" y="453.8" text-anchor="end" font-family="Arial, sans-serif" font-size="13" fill="#6b7280">¥3780</text>
<line x1="92" y1="355.6" x2="1162" y2="355.6" stroke="#e5e7eb" stroke-width="1"/>
<text x="80" y="360.6" text-anchor="end" font-family="Arial, sans-serif" font-size="13" fill="#6b7280">¥4860</text>
<line x1="92" y1="262.4" x2="1162" y2="262.4" stroke="#e5e7eb" stroke-width="1"/>
<text x="80" y="267.4" text-anchor="end" font-family="Arial, sans-serif" font-size="13" fill="#6b7280">¥5940</text>
<line x1="92" y1="169.2" x2="1162" y2="169.2" stroke="#e5e7eb" stroke-width="1"/>
<text x="80" y="174.2" text-anchor="end" font-family="Arial, sans-serif" font-size="13" fill="#6b7280">¥7020</text>
<line x1="92" y1="76.0" x2="1162" y2="76.0" stroke="#e5e7eb" stroke-width="1"/>
<text x="80" y="81.0" text-anchor="end" font-family="Arial, sans-serif" font-size="13" fill="#6b7280">¥8100</text>
<line x1="92" y1="76" x2="92" y2="542" stroke="#9ca3af" stroke-width="1"/>
<line x1="92" y1="542" x2="1162" y2="542" stroke="#9ca3af" stroke-width="1"/>
<text x="92.0" y="570" text-anchor="middle" font-family="Arial, sans-serif" font-size="13" fill="#6b7280">09-27</text>
<text x="306.0" y="570" text-anchor="middle" font-family="Arial, sans-serif" font-size="13" fill="#6b7280">09-28</text>
<text x="520.0" y="570" text-anchor="middle" font-family="Arial, sans-serif" font-size="13" fill="#6b7280">09-29</text>
<text x="734.0" y="570" text-anchor="middle" font-family="Arial, sans-serif" font-size="13" fill="#6b7280">09-29</text>
<text x="948.0" y="570" text-anchor="middle" font-family="Arial, sans-serif" font-size="13" fill="#6b7280">09-30</text>
<text x="1162.0" y="570" text-anchor="middle" font-family="Arial, sans-serif" font-size="13" fill="#6b7280">10-01</text>
<polyline points="150.8,178.8 162.5,178.8 174.3,178.8 186.1,178.8 197.8,178.8 209.6,178.8 221.3,178.8 233.1,178.8 244.9,178.8 256.6,178.8 268.4,178.8 280.1,178.8 291.9,178.8 303.6,178.8 315.4,188.3 327.2,188.3 338.9,188.3 350.7,188.3 362.4,188.3 374.2,188.3 386.0,188.3 397.7,188.3 409.5,188.3 421.2,188.3 433.0,188.3 444.7,188.3 456.5,188.3 468.3,188.3 480.0,188.3 491.8,188.3 503.5,188.3 515.3,188.3 527.1,188.3 538.8,188.3 550.6,188.3 562.3,188.3 574.1,188.3 585.8,188.3 597.6,188.3 738.7,171.0 750.5,171.0 762.2,171.0 774.0,171.0 785.7,171.0 797.5,171.0 809.3,171.0 821.0,171.0 832.8,171.0 844.5,171.0 856.3,171.0 868.0,171.0 879.8,171.0 891.6,171.0 903.3,171.0 915.1,171.0 926.8,171.0 938.6,171.0 950.4,171.0 962.1,171.0 973.9,171.0 985.6,171.0 997.4,171.0 1009.1,171.0 1020.9,90.9 1032.7,90.9 1044.4,140.8 1056.2,140.8 1067.9,140.8 1079.7,140.8 1091.5,140.8 1103.2,140.8 1115.0,140.8 1126.7,140.8 1138.5,140.8 1150.2,140.8 1162.0,171.0" fill="none" stroke="#2563eb" stroke-width="2.5" stroke-linejoin="round" stroke-linecap="round"/>
<line x1="620" y1="35" x2="644" y2="35" stroke="#2563eb" stroke-width="3"/>
<text x="651" y="40" font-family="Arial, sans-serif" font-size="13" fill="#374151">16G JD</text>
<polyline points="668.2,310.6 679.9,310.6 691.7,310.6 703.4,310.6 715.2,310.6 726.9,310.6 738.7,310.6 750.5,310.6 762.2,310.6 774.0,310.6 785.7,310.6 797.5,310.6 809.3,310.6 821.0,310.6 832.8,310.6 844.5,310.6 856.3,310.6 868.0,310.6 879.8,310.6 891.6,310.6 903.3,310.6 915.1,310.6 926.8,310.6 938.6,310.6 950.4,310.6" fill="none" stroke="#16a34a" stroke-width="2.5" stroke-linejoin="round" stroke-linecap="round"/>
<line x1="750" y1="35" x2="774" y2="35" stroke="#16a34a" stroke-width="3"/>
<text x="781" y="40" font-family="Arial, sans-serif" font-size="13" fill="#374151">16G Tmall</text>
<polyline points="92.0,378.1 103.8,447.2 115.5,447.2 127.3,447.2 139.0,447.2 150.8,447.2 162.5,447.2 174.3,447.2 186.1,447.2 197.8,378.1 209.6,378.1 221.3,378.1 233.1,378.1 244.9,378.1 256.6,378.1 268.4,378.1 280.1,378.1 291.9,378.1 303.6,378.1 315.4,395.4 327.2,395.4 338.9,430.0 350.7,430.0 362.4,430.0 374.2,430.0 386.0,430.0 397.7,430.0 409.5,430.0 421.2,430.0 433.0,430.0 444.7,430.0 456.5,430.0 468.3,430.0 480.0,430.0 491.8,430.0 503.5,430.0 515.3,430.0 527.1,430.0 538.8,430.0 550.6,430.0 562.3,430.0 574.1,430.0 585.8,430.0 597.6,430.0 609.4,430.0 621.1,430.0 632.9,412.6 644.6,412.6 656.4,412.6 668.2,412.6 679.9,412.6 691.7,412.6 703.4,412.6 715.2,412.6 726.9,412.6 738.7,429.9 750.5,429.9 762.2,429.9 774.0,429.9 785.7,429.9 797.5,429.9 809.3,429.9 821.0,429.9 832.8,429.9 844.5,429.9 856.3,429.9 868.0,429.9 879.8,429.9 891.6,429.9 903.3,429.9 915.1,429.9 926.8,429.9 938.6,429.9 950.4,429.9 962.1,429.9 973.9,429.9 985.6,429.9 997.4,429.9 1009.1,429.9 1020.9,429.9 1032.7,412.6 1044.4,412.6" fill="none" stroke="#dc2626" stroke-width="2.5" stroke-linejoin="round" stroke-linecap="round"/>
<line x1="880" y1="35" x2="904" y2="35" stroke="#dc2626" stroke-width="3"/>
<text x="911" y="40" font-family="Arial, sans-serif" font-size="13" fill="#374151">8G JD</text>
<polyline points="762.2,486.0 774.0,486.0 785.7,486.0 797.5,486.0 809.3,486.0 821.0,486.0 832.8,486.0 844.5,486.0 856.3,486.0 868.0,486.0 879.8,486.0 891.6,486.0 903.3,486.0 915.1,486.0 926.8,486.0 938.6,486.0 950.4,486.0 962.1,486.0 973.9,486.0 985.6,486.0 997.4,486.0 1009.1,486.0 1020.9,486.0 1032.7,486.0 1044.4,486.0" fill="none" stroke="#9333ea" stroke-width="2.5" stroke-linejoin="round" stroke-linecap="round"/>
<line x1="1010" y1="35" x2="1034" y2="35" stroke="#9333ea" stroke-width="3"/>
<text x="1041" y="40" font-family="Arial, sans-serif" font-size="13" fill="#374151">8G PDD</text>
<polyline points="303.6,524.8 315.4,524.8 327.2,524.8 338.9,524.8 350.7,524.8 362.4,524.8 374.2,524.8 386.0,524.8 397.7,524.8 409.5,524.8 421.2,524.8 433.0,524.8 444.7,524.8 456.5,524.8 468.3,524.8 480.0,524.8 491.8,524.8 503.5,524.8 515.3,524.8 527.1,524.8 538.8,524.8 550.6,524.8 562.3,524.8 574.1,524.8 585.8,524.8 597.6,524.8 609.4,524.8 621.1,524.8 632.9,524.8 644.6,524.8 656.4,524.8 668.2,524.8 679.9,524.8 691.7,524.8 703.4,524.8 715.2,524.8 726.9,524.8 738.7,524.8 750.5,524.8 762.2,524.8 774.0,524.8 785.7,524.8 797.5,524.8 809.3,524.8 821.0,524.8 832.8,524.8 938.6,465.1 950.4,465.1 962.1,465.1 973.9,465.1 985.6,465.1 997.4,465.1 1009.1,465.1 1020.9,465.1 1032.7,465.1 1044.4,465.1 1056.2,465.1 1067.9,465.1 1079.7,465.1 1091.5,465.1 1103.2,465.1 1115.0,465.1 1126.7,465.1 1138.5,465.1 1150.2,465.1 1162.0,465.1" fill="none" stroke="#ea580c" stroke-width="2.5" stroke-linejoin="round" stroke-linecap="round"/>
<line x1="620" y1="59" x2="644" y2="59" stroke="#ea580c" stroke-width="3"/>
<text x="651" y="64" font-family="Arial, sans-serif" font-size="13" fill="#374151">8G Tmall</text>
<text x="600.0" y="602" text-anchor="middle" font-family="Arial, sans-serif" font-size="12" fill="#9ca3af">Hourly minimum from 5-minute samples · Beijing time</text>
</svg>