<svg xmlns="http://www.w3.org/2000/svg" width="1200" height="620" viewBox="0 0 1200 620">
<rect width="100%" height="100%" fill="white"/>
<text x="60" y="38" font-family="Arial, sans-serif" font-size="26" font-weight="700" fill="#111827">RTX 5060 Ti 8G / 16G — 30 Day Price Trend</text>
<text x="60" y="61" font-family="Arial, sans-serif" font-size="14" fill="#6b7280">5-minute checks, charted as hourly minimum price</text>
<line x1="92" y1="542.0" x2="1162" y2="542.0" stroke="#e5e7eb" stroke-width="1"/>
<text x="80" y="547.0" text-anchor="end" font-family="Arial, sans-serif" font-size="13" fill="#6b7280">¥2700</text>
<line x1="92" y1="448.8" x2="1162" y2="448.8" stroke="#e5e7eb" stroke-width="1"/>
<text x="80" y="453.8" text-anchor="end" font-family="Arial, sans-serif" font-size="13" fill="#6b7280">¥3820</text>
<line x1="92" y1="355.6" x2="1162" y2="355.6" stroke="#e5e7eb" stroke-width="1"/>
<text x="80" y="360.6" text-anchor="end" font-family="Arial, sans-serif" font-size="13" fill="#6b7280">¥4940</text>
<line x1="92" y1="262.4" x2="1162" y2="262.4" stroke="#e5e7eb" stroke-width="1"/>
<text x="80" y="267.4" text-anchor="end" font-family="Arial, sans-serif" font-size="13" fill="#6b7280">¥6060</text>
<line x1="92" y1="169.2" x2="1162" y2="169.2" stroke="#e5e7eb" stroke-width="1"/>
<text x="80" y="174.2" text-anchor="end" font-family="Arial, sans-serif" font-size="13" fill="#6b7280">¥7180</text>
<line x1="92" y1="76.0" x2="1162" y2="76.0" stroke="#e5e7eb" stroke-width="1"/>
<text x="80" y="81.0" text-anchor="end" font-family="Arial, sans-serif" font-size="13" fill="#6b7280">¥8300</text>
<line x1="92" y1="76" x2="92" y2="542" stroke="#9ca3af" stroke-width="1"/>
<line x1="92" y1="542" x2="1162" y2="542" stroke="#9ca3af" stroke-width="1"/>
<text x="92.0" y="570" text-anchor="middle" font-family="Arial, sans-serif" font-size="13" fill="#6b7280">09-27</text>
<text x="306.0" y="570" text-anchor="middle" font-family="Arial, sans-serif" font-size="13" fill="#6b7280">09-28</text>
<text x="520.0" y="570" text-anchor="middle" font-family="Arial, sans-serif" font-size="13" fill="#6b7280">09-29</text>
<text x="734.0" y="570" text-anchor="middle" font-family="Arial, sans-serif" font-size="13" fill="#6b7280">10-01</text>
<text x="948.0" y="570" text-anchor="middle" font-family="Arial, sans-serif" font-size="13" fill="#6b7280">10-02</text>
<text x="1162.0" y="570" text-anchor="middle" font-family="Arial, sans-serif" font-size="13" fill="#6b7280">10-03</text>
<polyline points="130.5,191.8 138.2,191.8 145.9,191.8 153.6,191.8 161.3,191.8 169.0,191.8 176.7,191.8 184.4,191.8 192.1,191.8 199.8,191.8 207.5,191.8 215.2,191.8 222.9,191.8 230.6,191.8 238.3,200.9 246.0,200.9 253.7,200.9 261.4,200.9 269.1,200.9 276.7,200.9 284.4,200.9 292.1,200.9 299.8,200.9 307.5,200.9 315.2,200.9 322.9,200.9 330.6,200.9 338.3,200.9 346.0,200.9 353.7,200.9 361.4,200.9 369.1,200.9 376.8,200.9 384.5,200.9 392.2,200.9 399.9,200.9 407.6,200.9 415.3,200.9 423.0,200.9 515.4,184.3 523.1,184.3 530.8,184.3 538.5,184.3 546.2,184.3 553.9,184.3 561.6,184.3 569.3,184.3 577.0,184.3 584.7,184.3 592.4,184.3 600.1,184.3 607.8,184.3 615.5,184.3 623.2,184.3 630.8,184.3 638.5,184.3 646.2,184.3 653.9,184.3 661.6,184.3 669.3,184.3 677.0,184.3 684.7,184.3 692.4,184.3 700.1,107.0 707.8,107.0 715.5,155.1 723.2,155.1 730.9,155.1 738.6,155.1 746.3,155.1 754.0,155.1 761.7,155.1 769.4,155.1 777.1,155.1 784.8,155.1 792.5,184.3 800.2,184.3 807.9,184.3 815.6,184.3 823.3,184.3 831.0,184.3 838.7,184.3 846.4,184.3 854.1,184.3 861.8,184.3 869.5,184.3 877.2,184.3 884.9,184.3 892.6,184.3 900.3,184.3 908.0,184.3 915.7,184.3 923.4,184.3 931.1,184.3 938.8,184.3 946.5,184.3 954.2,184.3 961.9,184.3 969.6,184.3 977.3,184.3 984.9,84.4 992.6,84.4 1000.3,84.4 1008.0,84.4 1015.7,84.4 1023.4,84.4 1031.1,84.4 1046.5,168.5 1054.2,168.5 1061.9,274.1 1069.6,274.1 1077.3,274.1 1085.0,274.1 1092.7,274.1 1100.4,274.1 1108.1,274.1 1115.8,274.1 1123.5,274.1 1131.2,274.1 1138.9,274.1 1146.6,274.1 1154.3,274.1 1162.0,274.1" fill="none" stroke="#2563eb" stroke-width="2.5" stroke-linejoin="round" stroke-linecap="round"/>
<line x1="620" y1="35" x2="644" y2="35" stroke="#2563eb" stroke-width="3"/>
<text x="651" y="40" font-family="Arial, sans-serif" font-size="13" fill="#374151">16G JD</text>
<polyline points="469.2,318.8 476.9,318.8 484.6,318.8 492.3,318.8 500.0,318.8 507.7,318.8 515.4,318.8 523.1,318.8 530.8,318.8 538.5,318.8 546.2,318.8 553.9,318.8 561.6,318.8 569.3,318.8 577.0,318.8 584.7,318.8 592.4,318.8 600.1,318.8 607.8,318.8 615.5,318.8 623.2,318.8 630.8,318.8 638.5,318.8 646.2,318.8 653.9,318.8" fill="none" stroke="#16a34a" stroke-width="2.5" stroke-linejoin="round" stroke-linecap="round"/>
<line x1="750" y1="35" x2="774" y2="35" stroke="#16a34a" stroke-width="3"/>
<text x="781" y="40" font-family="Arial, sans-serif" font-size="13" fill="#374151">16G Tmall</text>
<polyline points="92.0,384.0 99.7,450.5 107.4,450.5 115.1,450.5 122.8,450.5 130.5,450.5 138.2,450.5 145.9,450.5 153.6,450.5 161.3,384.0 169.0,384.0 176.7,384.0 184.4,384.0 192.1,384.0 199.8,384.0 207.5,384.0 215.2,384.0 222.9,384.0 230.6,384.0 238.3,400.6 246.0,400.6 253.7,434.0 261.4,434.0 269.1,434.0 276.7,434.0 284.4,434.0 292.1,434.0 299.8,434.0 307.5,434.0 315.2,434.0 322.9,434.0 330.6,434.0 338.3,434.0 346.0,434.0 353.7,434.0 361.4,434.0 369.1,434.0 376.8,434.0 384.5,434.0 392.2,434.0 399.9,434.0 407.6,434.0 415.3,434.0 423.0,434.0 430.7,434.0 438.4,434.0 446.1,417.3 453.8,417.3 461.5,417.3 469.2,417.3 476.9,417.3 484.6,417.3 492.3,417.3 500.0,417.3 507.7,417.3 515.4,433.9 523.1,433.9 530.8,433.9 538.5,433.9 546.2,433.9 553.9,433.9 561.6,433.9 569.3,433.9 577.0,433.9 584.7,433.9 592.4,433.9 600.1,433.9 607.8,433.9 615.5,433.9 623.2,433.9 630.8,433.9 638.5,433.9 646.2,433.9 653.9,433.9 661.6,433.9 669.3,433.9 677.0,433.9 684.7,433.9 692.4,433.9 700.1,433.9 707.8,417.3 715.5,417.3 792.5,384.0 800.2,400.6 807.9,400.6 815.6,400.6 823.3,400.6 831.0,400.6 838.7,400.6 846.4,400.6 854.1,400.6 861.8,400.6 869.5,400.6 877.2,400.6 884.9,400.6 892.6,400.6 900.3,400.6 908.0,400.6 915.7,400.6 923.4,400.6 931.1,400.6 938.8,400.6 946.5,400.6 954.2,400.6 961.9,400.6 969.6,400.6 977.3,417.3 984.9,417.3 992.6,417.3 1000.3,417.3 1008.0,417.3 1015.7,417.3 1023.4,417.3 1031.1,417.3 1038.8,417.3 1046.5,417.3 1054.2,417.3 1061.9,417.3 1069.6,417.3 1077.3,417.3 1085.0,417.3 1092.7,417.3 1100.4,417.3 1108.1,417.3 1115.8,417.3 1123.5,417.3 1131.2,417.3 1138.9,417.3 1146.6,417.3 1154.3,417.3 1162.0,417.3" fill="none" stroke="#dc2626" stroke-width="2.5" stroke-linejoin="round" stroke-linecap="round"/>
<line x1="880" y1="35" x2="904" y2="35" stroke="#dc2626" stroke-width="3"/>
<text x="911" y="40" font-family="Arial, sans-serif" font-size="13" fill="#374151">8G JD</text>
<polyline points="530.8,488.0 538.5,488.0 546.2,488.0 553.9,488.0 561.6,488.0 569.3,488.0 577.0,488.0 584.7,488.0 592.4,488.0 600.1,488.0 607.8,488.0 615.5,488.0 623.2,488.0 630.8,488.0 638.5,488.0 646.2,488.0 653.9,488.0 661.6,488.0 669.3,488.0 677.0,488.0 684.7,488.0 692.4,488.0 700.1,488.0 707.8,488.0 715.5,488.0 800.2,490.1 807.9,490.1 815.6,490.1 823.3,490.1 831.0,490.1 838.7,490.1 846.4,490.1 854.1,490.1 861.8,490.1 869.5,490.1 877.2,490.1 884.9,490.1 892.6,490.1 900.3,490.1 908.0,490.1 915.7,490.1 923.4,490.1 931.1,490.1 938.8,490.1 946.5,490.1 954.2,490.1 961.9,490.1 969.6,490.1 977.3,490.1 984.9,490.1" fill="none" stroke="#9333ea" stroke-width="2.5" stroke-linejoin="round" stroke-linecap="round"/>
<line x1="1010" y1="35" x2="1034" y2="35" stroke="#9333ea" stroke-width="3"/>
<text x="1041" y="40" font-family="Arial, sans-serif" font-size="13" fill="#374151">8G PDD</text>
<polyline points="230.6,525.4 238.3,525.4 246.0,525.4 253.7,525.4 261.4,525.4 269.1,525.4 276.7,525.4 284.4,525.4 292.1,525.4 299.8,525.4 307.5,525.4 315.2,525.4 322.9,525.4 330.6,525.4 338.3,525.4 346.0,525.4 353.7,525.4 361.4,525.4 369.1,525.4 376.8,525.4 384.5,525.4 392.2,525.4 399.9,525.4 407.6,525.4 415.3,525.4 423.0,525.4 430.7,525.4 438.4,525.4 446.1,525.4 453.8,525.4 461.5,525.4 469.2,525.4 476.9,525.4 484.6,525.4 492.3,525.4 500.0,525.4 507.7,525.4 515.4,525.4 523.1,525.4 530.8,525.4 538.5,525.4 546.2,525.4 553.9,525.4 561.6,525.4 569.3,525.4 577.0,525.4 646.2,467.8 653.9,467.8 661.6,467.8 669.3,467.8 677.0,467.8 684.7,467.8 692.4,467.8 700.1,467.8 707.8,467.8 715.5,467.8 723.2,467.8 730.9,467.8 738.6,467.8 746.3,467.8 754.0,467.8 761.7,467.8 769.4,467.8 777.1,467.8 784.8,467.8 792.5,467.8 800.2,467.8 807.9,467.8 815.6,467.8 823.3,467.8 831.0,467.8" fill="none" stroke="#ea580c" stroke-width="2.5" stroke-linejoin="round" stroke-linecap="round"/>
<line x1="620" y1="59" x2="644" y2="59" stroke="#ea580c" stroke-width="3"/>
<text x="651" y="64" font-family="Arial, sans-serif" font-size="13" fill="#374151">8G Tmall</text>
<text x="600.0" y="602" text-anchor="middle" font-family="Arial, sans-serif" font-size="12" fill="#9ca3af">Hourly minimum from 5-minute samples · Beijing time</text>
</svg>