<svg xmlns="http://www.w3.org/2000/svg" width="1200" height="620" viewBox="0 0 1200 620">
<rect width="100%" height="100%" fill="white"/>
<text x="60" y="38" font-family="Arial, sans-serif" font-size="26" font-weight="700" fill="#111827">RTX 5060 Ti 8G / 16G — 30 Day Price Trend</text>
<text x="60" y="61" font-family="Arial, sans-serif" font-size="14" fill="#6b7280">5-minute checks, charted as hourly minimum price</text>
<line x1="92" y1="542.0" x2="1162" y2="542.0" stroke="#e5e7eb" stroke-width="1"/>
<text x="80" y="547.0" text-anchor="end" font-family="Arial, sans-serif" font-size="13" fill="#6b7280">¥2700</text>
<line x1="92" y1="448.8" x2="1162" y2="448.8" stroke="#e5e7eb" stroke-width="1"/>
<text x="80" y="453.8" text-anchor="end" font-family="Arial, sans-serif" font-size="13" fill="#6b7280">¥3580</text>
<line x1="92" y1="355.6" x2="1162" y2="355.6" stroke="#e5e7eb" stroke-width="1"/>
<text x="80" y="360.6" text-anchor="end" font-family="Arial, sans-serif" font-size="13" fill="#6b7280">¥4460</text>
<line x1="92" y1="262.4" x2="1162" y2="262.4" stroke="#e5e7eb" stroke-width="1"/>
<text x="80" y="267.4" text-anchor="end" font-family="Arial, sans-serif" font-size="13" fill="#6b7280">¥5340</text>
<line x1="92" y1="169.2" x2="1162" y2="169.2" stroke="#e5e7eb" stroke-width="1"/>
<text x="80" y="174.2" text-anchor="end" font-family="Arial, sans-serif" font-size="13" fill="#6b7280">¥6220</text>
<line x1="92" y1="76.0" x2="1162" y2="76.0" stroke="#e5e7eb" stroke-width="1"/>
<text x="80" y="81.0" text-anchor="end" font-family="Arial, sans-serif" font-size="13" fill="#6b7280">¥7100</text>
<line x1="92" y1="76" x2="92" y2="542" stroke="#9ca3af" stroke-width="1"/>
<line x1="92" y1="542" x2="1162" y2="542" stroke="#9ca3af" stroke-width="1"/>
<text x="92.0" y="570" text-anchor="middle" font-family="Arial, sans-serif" font-size="13" fill="#6b7280">09-27</text>
<text x="306.0" y="570" text-anchor="middle" font-family="Arial, sans-serif" font-size="13" fill="#6b7280">09-28</text>
<text x="520.0" y="570" text-anchor="middle" font-family="Arial, sans-serif" font-size="13" fill="#6b7280">09-28</text>
<text x="734.0" y="570" text-anchor="middle" font-family="Arial, sans-serif" font-size="13" fill="#6b7280">09-29</text>
<text x="948.0" y="570" text-anchor="middle" font-family="Arial, sans-serif" font-size="13" fill="#6b7280">09-29</text>
<text x="1162.0" y="570" text-anchor="middle" font-family="Arial, sans-serif" font-size="13" fill="#6b7280">09-30</text>
<polyline points="168.4,96.3 183.7,96.3 199.0,96.3 214.3,96.3 229.6,96.3 244.9,96.3 260.1,96.3 275.4,96.3 290.7,96.3 306.0,96.3 321.3,96.3 336.6,96.3 351.9,96.3 367.1,96.3 382.4,107.9 397.7,107.9 413.0,107.9 428.3,107.9 443.6,107.9 458.9,107.9 474.1,107.9 489.4,107.9 504.7,107.9 520.0,107.9 535.3,107.9 550.6,107.9 565.9,107.9 581.1,107.9 596.4,107.9 611.7,107.9 627.0,107.9 642.3,107.9 657.6,107.9 672.9,107.9 688.1,107.9 703.4,107.9 718.7,107.9 734.0,107.9 749.3,107.9 932.7,86.7 948.0,86.7 963.3,86.7 978.6,86.7 993.9,86.7 1009.1,86.7 1024.4,86.7 1039.7,86.7 1055.0,86.7 1070.3,86.7 1085.6,86.7 1100.9,86.7 1116.1,86.7 1131.4,86.7 1146.7,86.7 1162.0,86.7" fill="none" stroke="#2563eb" stroke-width="2.5" stroke-linejoin="round" stroke-linecap="round"/>
<line x1="620" y1="35" x2="644" y2="35" stroke="#2563eb" stroke-width="3"/>
<text x="651" y="40" font-family="Arial, sans-serif" font-size="13" fill="#374151">16G JD</text>
<polyline points="841.0,258.0 856.3,258.0 871.6,258.0 886.9,258.0 902.1,258.0 917.4,258.0 932.7,258.0 948.0,258.0 963.3,258.0 978.6,258.0 993.9,258.0 1009.1,258.0 1024.4,258.0 1039.7,258.0 1055.0,258.0 1070.3,258.0 1085.6,258.0 1100.9,258.0 1116.1,258.0 1131.4,258.0 1146.7,258.0 1162.0,258.0" fill="none" stroke="#16a34a" stroke-width="2.5" stroke-linejoin="round" stroke-linecap="round"/>
<line x1="750" y1="35" x2="774" y2="35" stroke="#16a34a" stroke-width="3"/>
<text x="781" y="40" font-family="Arial, sans-serif" font-size="13" fill="#374151">16G Tmall</text>
<polyline points="92.0,340.9 107.3,425.6 122.6,425.6 137.9,425.6 153.1,425.6 168.4,425.6 183.7,425.6 199.0,425.6 214.3,425.6 229.6,340.9 244.9,340.9 260.1,340.9 275.4,340.9 290.7,340.9 306.0,340.9 321.3,340.9 336.6,340.9 351.9,340.9 367.1,340.9 382.4,362.1 397.7,362.1 413.0,404.5 428.3,404.5 443.6,404.5 458.9,404.5 474.1,404.5 489.4,404.5 504.7,404.5 520.0,404.5 535.3,404.5 550.6,404.5 565.9,404.5 581.1,404.5 596.4,404.5 611.7,404.5 627.0,404.5 642.3,404.5 657.6,404.5 672.9,404.5 688.1,404.5 703.4,404.5 718.7,404.5 734.0,404.5 749.3,404.5 764.6,404.5 779.9,404.5 795.1,383.2 810.4,383.2 825.7,383.2 841.0,383.2 856.3,383.2 871.6,383.2 886.9,383.2 902.1,383.2 917.4,383.2 932.7,404.4 948.0,404.4 963.3,404.4 978.6,404.4 993.9,404.4 1009.1,404.4 1024.4,404.4 1039.7,404.4 1055.0,404.4 1070.3,404.4 1085.6,404.4 1100.9,404.4 1116.1,404.4 1131.4,404.4 1146.7,404.4 1162.0,404.4" fill="none" stroke="#dc2626" stroke-width="2.5" stroke-linejoin="round" stroke-linecap="round"/>
<line x1="880" y1="35" x2="904" y2="35" stroke="#dc2626" stroke-width="3"/>
<text x="911" y="40" font-family="Arial, sans-serif" font-size="13" fill="#374151">8G JD</text>
<polyline points="963.3,473.3 978.6,473.3 993.9,473.3 1009.1,473.3 1024.4,473.3 1039.7,473.3 1055.0,473.3 1070.3,473.3 1085.6,473.3 1100.9,473.3 1116.1,473.3 1131.4,473.3 1146.7,473.3 1162.0,473.3" fill="none" stroke="#9333ea" stroke-width="2.5" stroke-linejoin="round" stroke-linecap="round"/>
<line x1="1010" y1="35" x2="1034" y2="35" stroke="#9333ea" stroke-width="3"/>
<text x="1041" y="40" font-family="Arial, sans-serif" font-size="13" fill="#374151">8G PDD</text>
<polyline points="367.1,520.9 382.4,520.9 397.7,520.9 413.0,520.9 428.3,520.9 443.6,520.9 458.9,520.9 474.1,520.9 489.4,520.9 504.7,520.9 520.0,520.9 535.3,520.9 550.6,520.9 565.9,520.9 581.1,520.9 596.4,520.9 611.7,520.9 627.0,520.9 642.3,520.9 657.6,520.9 672.9,520.9 688.1,520.9 703.4,520.9 718.7,520.9 734.0,520.9 749.3,520.9 764.6,520.9 779.9,520.9 795.1,520.9 810.4,520.9 825.7,520.9 841.0,520.9 856.3,520.9 871.6,520.9 886.9,520.9 902.1,520.9 917.4,520.9 932.7,520.9 948.0,520.9 963.3,520.9 978.6,520.9 993.9,520.9 1009.1,520.9 1024.4,520.9 1039.7,520.9 1055.0,520.9" fill="none" stroke="#ea580c" stroke-width="2.5" stroke-linejoin="round" stroke-linecap="round"/>
<line x1="620" y1="59" x2="644" y2="59" stroke="#ea580c" stroke-width="3"/>
<text x="651" y="64" font-family="Arial, sans-serif" font-size="13" fill="#374151">8G Tmall</text>
<text x="600.0" y="602" text-anchor="middle" font-family="Arial, sans-serif" font-size="12" fill="#9ca3af">Hourly minimum from 5-minute samples · Beijing time</text>
</svg>