<svg xmlns="http://www.w3.org/2000/svg" width="1200" height="620" viewBox="0 0 1200 620">
<rect width="100%" height="100%" fill="white"/>
<text x="60" y="38" font-family="Arial, sans-serif" font-size="26" font-weight="700" fill="#111827">RTX 5060 Ti 8G / 16G — 30 Day Price Trend</text>
<text x="60" y="61" font-family="Arial, sans-serif" font-size="14" fill="#6b7280">5-minute checks, charted as hourly minimum price</text>
<line x1="92" y1="542.0" x2="1162" y2="542.0" stroke="#e5e7eb" stroke-width="1"/>
<text x="80" y="547.0" text-anchor="end" font-family="Arial, sans-serif" font-size="13" fill="#6b7280">¥2700</text>
<line x1="92" y1="448.8" x2="1162" y2="448.8" stroke="#e5e7eb" stroke-width="1"/>
<text x="80" y="453.8" text-anchor="end" font-family="Arial, sans-serif" font-size="13" fill="#6b7280">¥3780</text>
<line x1="92" y1="355.6" x2="1162" y2="355.6" stroke="#e5e7eb" stroke-width="1"/>
<text x="80" y="360.6" text-anchor="end" font-family="Arial, sans-serif" font-size="13" fill="#6b7280">¥4860</text>
<line x1="92" y1="262.4" x2="1162" y2="262.4" stroke="#e5e7eb" stroke-width="1"/>
<text x="80" y="267.4" text-anchor="end" font-family="Arial, sans-serif" font-size="13" fill="#6b7280">¥5940</text>
<line x1="92" y1="169.2" x2="1162" y2="169.2" stroke="#e5e7eb" stroke-width="1"/>
<text x="80" y="174.2" text-anchor="end" font-family="Arial, sans-serif" font-size="13" fill="#6b7280">¥7020</text>
<line x1="92" y1="76.0" x2="1162" y2="76.0" stroke="#e5e7eb" stroke-width="1"/>
<text x="80" y="81.0" text-anchor="end" font-family="Arial, sans-serif" font-size="13" fill="#6b7280">¥8100</text>
<line x1="92" y1="76" x2="92" y2="542" stroke="#9ca3af" stroke-width="1"/>
<line x1="92" y1="542" x2="1162" y2="542" stroke="#9ca3af" stroke-width="1"/>
<text x="92.0" y="570" text-anchor="middle" font-family="Arial, sans-serif" font-size="13" fill="#6b7280">09-27</text>
<text x="306.0" y="570" text-anchor="middle" font-family="Arial, sans-serif" font-size="13" fill="#6b7280">09-28</text>
<text x="520.0" y="570" text-anchor="middle" font-family="Arial, sans-serif" font-size="13" fill="#6b7280">09-29</text>
<text x="734.0" y="570" text-anchor="middle" font-family="Arial, sans-serif" font-size="13" fill="#6b7280">09-30</text>
<text x="948.0" y="570" text-anchor="middle" font-family="Arial, sans-serif" font-size="13" fill="#6b7280">10-01</text>
<text x="1162.0" y="570" text-anchor="middle" font-family="Arial, sans-serif" font-size="13" fill="#6b7280">10-02</text>
<polyline points="141.5,178.8 151.4,178.8 161.4,178.8 171.3,178.8 181.2,178.8 191.1,178.8 201.0,178.8 210.9,178.8 220.8,178.8 230.7,178.8 240.6,178.8 250.5,178.8 260.4,178.8 270.3,178.8 280.2,188.3 290.1,188.3 300.1,188.3 310.0,188.3 319.9,188.3 329.8,188.3 339.7,188.3 349.6,188.3 359.5,188.3 369.4,188.3 379.3,188.3 389.2,188.3 399.1,188.3 409.0,188.3 418.9,188.3 428.9,188.3 438.8,188.3 448.7,188.3 458.6,188.3 468.5,188.3 478.4,188.3 488.3,188.3 498.2,188.3 508.1,188.3 518.0,188.3 636.9,171.0 646.8,171.0 656.7,171.0 666.6,171.0 676.5,171.0 686.4,171.0 696.4,171.0 706.3,171.0 716.2,171.0 726.1,171.0 736.0,171.0 745.9,171.0 755.8,171.0 765.7,171.0 775.6,171.0 785.5,171.0 795.4,171.0 805.3,171.0 815.2,171.0 825.1,171.0 835.1,171.0 845.0,171.0 854.9,171.0 864.8,171.0 874.7,90.9 884.6,90.9 894.5,140.8 904.4,140.8 914.3,140.8 924.2,140.8 934.1,140.8 944.0,140.8 953.9,140.8 963.9,140.8 973.8,140.8 983.7,140.8 993.6,171.0 1003.5,171.0 1013.4,171.0 1023.3,171.0 1033.2,171.0 1043.1,171.0 1053.0,171.0 1062.9,171.0 1072.8,171.0 1082.7,171.0 1092.6,171.0 1102.6,171.0 1112.5,171.0 1122.4,171.0 1132.3,171.0 1142.2,171.0 1152.1,171.0 1162.0,171.0" fill="none" stroke="#2563eb" stroke-width="2.5" stroke-linejoin="round" stroke-linecap="round"/>
<line x1="620" y1="35" x2="644" y2="35" stroke="#2563eb" stroke-width="3"/>
<text x="651" y="40" font-family="Arial, sans-serif" font-size="13" fill="#374151">16G JD</text>
<polyline points="577.5,310.6 587.4,310.6 597.3,310.6 607.2,310.6 617.1,310.6 627.0,310.6 636.9,310.6 646.8,310.6 656.7,310.6 666.6,310.6 676.5,310.6 686.4,310.6 696.4,310.6 706.3,310.6 716.2,310.6 726.1,310.6 736.0,310.6 745.9,310.6 755.8,310.6 765.7,310.6 775.6,310.6 785.5,310.6 795.4,310.6 805.3,310.6 815.2,310.6" fill="none" stroke="#16a34a" stroke-width="2.5" stroke-linejoin="round" stroke-linecap="round"/>
<line x1="750" y1="35" x2="774" y2="35" stroke="#16a34a" stroke-width="3"/>
<text x="781" y="40" font-family="Arial, sans-serif" font-size="13" fill="#374151">16G Tmall</text>
<polyline points="92.0,378.1 101.9,447.2 111.8,447.2 121.7,447.2 131.6,447.2 141.5,447.2 151.4,447.2 161.4,447.2 171.3,447.2 181.2,378.1 191.1,378.1 201.0,378.1 210.9,378.1 220.8,378.1 230.7,378.1 240.6,378.1 250.5,378.1 260.4,378.1 270.3,378.1 280.2,395.4 290.1,395.4 300.1,430.0 310.0,430.0 319.9,430.0 329.8,430.0 339.7,430.0 349.6,430.0 359.5,430.0 369.4,430.0 379.3,430.0 389.2,430.0 399.1,430.0 409.0,430.0 418.9,430.0 428.9,430.0 438.8,430.0 448.7,430.0 458.6,430.0 468.5,430.0 478.4,430.0 488.3,430.0 498.2,430.0 508.1,430.0 518.0,430.0 527.9,430.0 537.8,430.0 547.7,412.6 557.6,412.6 567.6,412.6 577.5,412.6 587.4,412.6 597.3,412.6 607.2,412.6 617.1,412.6 627.0,412.6 636.9,429.9 646.8,429.9 656.7,429.9 666.6,429.9 676.5,429.9 686.4,429.9 696.4,429.9 706.3,429.9 716.2,429.9 726.1,429.9 736.0,429.9 745.9,429.9 755.8,429.9 765.7,429.9 775.6,429.9 785.5,429.9 795.4,429.9 805.3,429.9 815.2,429.9 825.1,429.9 835.1,429.9 845.0,429.9 854.9,429.9 864.8,429.9 874.7,429.9 884.6,412.6 894.5,412.6 993.6,378.1 1003.5,395.4 1013.4,395.4 1023.3,395.4 1033.2,395.4 1043.1,395.4 1053.0,395.4 1062.9,395.4 1072.8,395.4 1082.7,395.4 1092.6,395.4 1102.6,395.4 1112.5,395.4 1122.4,395.4 1132.3,395.4 1142.2,395.4 1152.1,395.4 1162.0,395.4" fill="none" stroke="#dc2626" stroke-width="2.5" stroke-linejoin="round" stroke-linecap="round"/>
<line x1="880" y1="35" x2="904" y2="35" stroke="#dc2626" stroke-width="3"/>
<text x="911" y="40" font-family="Arial, sans-serif" font-size="13" fill="#374151">8G JD</text>
<polyline points="656.7,486.0 666.6,486.0 676.5,486.0 686.4,486.0 696.4,486.0 706.3,486.0 716.2,486.0 726.1,486.0 736.0,486.0 745.9,486.0 755.8,486.0 765.7,486.0 775.6,486.0 785.5,486.0 795.4,486.0 805.3,486.0 815.2,486.0 825.1,486.0 835.1,486.0 845.0,486.0 854.9,486.0 864.8,486.0 874.7,486.0 884.6,486.0 894.5,486.0 1003.5,488.2 1013.4,488.2 1023.3,488.2 1033.2,488.2 1043.1,488.2 1053.0,488.2 1062.9,488.2 1072.8,488.2 1082.7,488.2 1092.6,488.2 1102.6,488.2 1112.5,488.2 1122.4,488.2 1132.3,488.2 1142.2,488.2 1152.1,488.2 1162.0,488.2" fill="none" stroke="#9333ea" stroke-width="2.5" stroke-linejoin="round" stroke-linecap="round"/>
<line x1="1010" y1="35" x2="1034" y2="35" stroke="#9333ea" stroke-width="3"/>
<text x="1041" y="40" font-family="Arial, sans-serif" font-size="13" fill="#374151">8G PDD</text>
<polyline points="270.3,524.8 280.2,524.8 290.1,524.8 300.1,524.8 310.0,524.8 319.9,524.8 329.8,524.8 339.7,524.8 349.6,524.8 359.5,524.8 369.4,524.8 379.3,524.8 389.2,524.8 399.1,524.8 409.0,524.8 418.9,524.8 428.9,524.8 438.8,524.8 448.7,524.8 458.6,524.8 468.5,524.8 478.4,524.8 488.3,524.8 498.2,524.8 508.1,524.8 518.0,524.8 527.9,524.8 537.8,524.8 547.7,524.8 557.6,524.8 567.6,524.8 577.5,524.8 587.4,524.8 597.3,524.8 607.2,524.8 617.1,524.8 627.0,524.8 636.9,524.8 646.8,524.8 656.7,524.8 666.6,524.8 676.5,524.8 686.4,524.8 696.4,524.8 706.3,524.8 716.2,524.8 805.3,465.1 815.2,465.1 825.1,465.1 835.1,465.1 845.0,465.1 854.9,465.1 864.8,465.1 874.7,465.1 884.6,465.1 894.5,465.1 904.4,465.1 914.3,465.1 924.2,465.1 934.1,465.1 944.0,465.1 953.9,465.1 963.9,465.1 973.8,465.1 983.7,465.1 993.6,465.1 1003.5,465.1 1013.4,465.1 1023.3,465.1 1033.2,465.1 1043.1,465.1" fill="none" stroke="#ea580c" stroke-width="2.5" stroke-linejoin="round" stroke-linecap="round"/>
<line x1="620" y1="59" x2="644" y2="59" stroke="#ea580c" stroke-width="3"/>
<text x="651" y="64" font-family="Arial, sans-serif" font-size="13" fill="#374151">8G Tmall</text>
<text x="600.0" y="602" text-anchor="middle" font-family="Arial, sans-serif" font-size="12" fill="#9ca3af">Hourly minimum from 5-minute samples · Beijing time</text>
</svg>