<svg xmlns="http://www.w3.org/2000/svg" width="1200" height="620" viewBox="0 0 1200 620">
<rect width="100%" height="100%" fill="white"/>
<text x="60" y="38" font-family="Arial, sans-serif" font-size="26" font-weight="700" fill="#111827">RTX 5060 Ti 8G / 16G — 30 Day Price Trend</text>
<text x="60" y="61" font-family="Arial, sans-serif" font-size="14" fill="#6b7280">5-minute checks, charted as hourly minimum price</text>
<line x1="92" y1="542.0" x2="1162" y2="542.0" stroke="#e5e7eb" stroke-width="1"/>
<text x="80" y="547.0" text-anchor="end" font-family="Arial, sans-serif" font-size="13" fill="#6b7280">¥2700</text>
<line x1="92" y1="448.8" x2="1162" y2="448.8" stroke="#e5e7eb" stroke-width="1"/>
<text x="80" y="453.8" text-anchor="end" font-family="Arial, sans-serif" font-size="13" fill="#6b7280">¥3820</text>
<line x1="92" y1="355.6" x2="1162" y2="355.6" stroke="#e5e7eb" stroke-width="1"/>
<text x="80" y="360.6" text-anchor="end" font-family="Arial, sans-serif" font-size="13" fill="#6b7280">¥4940</text>
<line x1="92" y1="262.4" x2="1162" y2="262.4" stroke="#e5e7eb" stroke-width="1"/>
<text x="80" y="267.4" text-anchor="end" font-family="Arial, sans-serif" font-size="13" fill="#6b7280">¥6060</text>
<line x1="92" y1="169.2" x2="1162" y2="169.2" stroke="#e5e7eb" stroke-width="1"/>
<text x="80" y="174.2" text-anchor="end" font-family="Arial, sans-serif" font-size="13" fill="#6b7280">¥7180</text>
<line x1="92" y1="76.0" x2="1162" y2="76.0" stroke="#e5e7eb" stroke-width="1"/>
<text x="80" y="81.0" text-anchor="end" font-family="Arial, sans-serif" font-size="13" fill="#6b7280">¥8300</text>
<line x1="92" y1="76" x2="92" y2="542" stroke="#9ca3af" stroke-width="1"/>
<line x1="92" y1="542" x2="1162" y2="542" stroke="#9ca3af" stroke-width="1"/>
<text x="92.0" y="570" text-anchor="middle" font-family="Arial, sans-serif" font-size="13" fill="#6b7280">09-27</text>
<text x="306.0" y="570" text-anchor="middle" font-family="Arial, sans-serif" font-size="13" fill="#6b7280">09-29</text>
<text x="520.0" y="570" text-anchor="middle" font-family="Arial, sans-serif" font-size="13" fill="#6b7280">09-30</text>
<text x="734.0" y="570" text-anchor="middle" font-family="Arial, sans-serif" font-size="13" fill="#6b7280">10-01</text>
<text x="948.0" y="570" text-anchor="middle" font-family="Arial, sans-serif" font-size="13" fill="#6b7280">10-03</text>
<text x="1162.0" y="570" text-anchor="middle" font-family="Arial, sans-serif" font-size="13" fill="#6b7280">10-04</text>
<polyline points="123.1,191.8 129.3,191.8 135.5,191.8 141.8,191.8 148.0,191.8 154.2,191.8 160.4,191.8 166.7,191.8 172.9,191.8 179.1,191.8 185.3,191.8 191.5,191.8 197.8,191.8 204.0,191.8 210.2,200.9 216.4,200.9 222.6,200.9 228.9,200.9 235.1,200.9 241.3,200.9 247.5,200.9 253.7,200.9 260.0,200.9 266.2,200.9 272.4,200.9 278.6,200.9 284.8,200.9 291.1,200.9 297.3,200.9 303.5,200.9 309.7,200.9 316.0,200.9 322.2,200.9 328.4,200.9 334.6,200.9 340.8,200.9 347.1,200.9 353.3,200.9 359.5,200.9 434.2,184.3 440.4,184.3 446.6,184.3 452.8,184.3 459.0,184.3 465.3,184.3 471.5,184.3 477.7,184.3 483.9,184.3 490.1,184.3 496.4,184.3 502.6,184.3 508.8,184.3 515.0,184.3 521.2,184.3 527.5,184.3 533.7,184.3 539.9,184.3 546.1,184.3 552.3,184.3 558.6,184.3 564.8,184.3 571.0,184.3 577.2,184.3 583.5,107.0 589.7,107.0 595.9,155.1 602.1,155.1 608.3,155.1 614.6,155.1 620.8,155.1 627.0,155.1 633.2,155.1 639.4,155.1 645.7,155.1 651.9,155.1 658.1,184.3 664.3,184.3 670.5,184.3 676.8,184.3 683.0,184.3 689.2,184.3 695.4,184.3 701.7,184.3 707.9,184.3 714.1,184.3 720.3,184.3 726.5,184.3 732.8,184.3 739.0,184.3 745.2,184.3 751.4,184.3 757.6,184.3 763.9,184.3 770.1,184.3 776.3,184.3 782.5,184.3 788.7,184.3 795.0,184.3 801.2,184.3 807.4,184.3 813.6,84.4 819.8,84.4 826.1,84.4 832.3,84.4 838.5,84.4 844.7,84.4 851.0,84.4 863.4,168.5 869.6,168.5 875.8,274.1 882.1,274.1 888.3,274.1 894.5,274.1 900.7,274.1 906.9,274.1 913.2,274.1 919.4,274.1 925.6,274.1 931.8,274.1 938.0,274.1 944.3,274.1 950.5,274.1 956.7,274.1 962.9,274.1 969.2,274.1 975.4,274.1 981.6,274.1 987.8,274.1 994.0,274.1 1000.3,274.1 1006.5,274.1 1012.7,274.1 1025.1,274.1 1056.2,200.9 1093.6,200.9 1112.2,200.9 1124.7,200.9 1162.0,191.9" fill="none" stroke="#2563eb" stroke-width="2.5" stroke-linejoin="round" stroke-linecap="round"/>
<line x1="620" y1="35" x2="644" y2="35" stroke="#2563eb" stroke-width="3"/>
<text x="651" y="40" font-family="Arial, sans-serif" font-size="13" fill="#374151">16G JD</text>
<polyline points="396.8,318.8 403.0,318.8 409.3,318.8 415.5,318.8 421.7,318.8 427.9,318.8 434.2,318.8 440.4,318.8 446.6,318.8 452.8,318.8 459.0,318.8 465.3,318.8 471.5,318.8 477.7,318.8 483.9,318.8 490.1,318.8 496.4,318.8 502.6,318.8 508.8,318.8 515.0,318.8 521.2,318.8 527.5,318.8 533.7,318.8 539.9,318.8 546.1,318.8" fill="none" stroke="#16a34a" stroke-width="2.5" stroke-linejoin="round" stroke-linecap="round"/>
<line x1="750" y1="35" x2="774" y2="35" stroke="#16a34a" stroke-width="3"/>
<text x="781" y="40" font-family="Arial, sans-serif" font-size="13" fill="#374151">16G Tmall</text>
<polyline points="92.0,384.0 98.2,450.5 104.4,450.5 110.7,450.5 116.9,450.5 123.1,450.5 129.3,450.5 135.5,450.5 141.8,450.5 148.0,384.0 154.2,384.0 160.4,384.0 166.7,384.0 172.9,384.0 179.1,384.0 185.3,384.0 191.5,384.0 197.8,384.0 204.0,384.0 210.2,400.6 216.4,400.6 222.6,434.0 228.9,434.0 235.1,434.0 241.3,434.0 247.5,434.0 253.7,434.0 260.0,434.0 266.2,434.0 272.4,434.0 278.6,434.0 284.8,434.0 291.1,434.0 297.3,434.0 303.5,434.0 309.7,434.0 316.0,434.0 322.2,434.0 328.4,434.0 334.6,434.0 340.8,434.0 347.1,434.0 353.3,434.0 359.5,434.0 365.7,434.0 371.9,434.0 378.2,417.3 384.4,417.3 390.6,417.3 396.8,417.3 403.0,417.3 409.3,417.3 415.5,417.3 421.7,417.3 427.9,417.3 434.2,433.9 440.4,433.9 446.6,433.9 452.8,433.9 459.0,433.9 465.3,433.9 471.5,433.9 477.7,433.9 483.9,433.9 490.1,433.9 496.4,433.9 502.6,433.9 508.8,433.9 515.0,433.9 521.2,433.9 527.5,433.9 533.7,433.9 539.9,433.9 546.1,433.9 552.3,433.9 558.6,433.9 564.8,433.9 571.0,433.9 577.2,433.9 583.5,433.9 589.7,417.3 595.9,417.3 658.1,384.0 664.3,400.6 670.5,400.6 676.8,400.6 683.0,400.6 689.2,400.6 695.4,400.6 701.7,400.6 707.9,400.6 714.1,400.6 720.3,400.6 726.5,400.6 732.8,400.6 739.0,400.6 745.2,400.6 751.4,400.6 757.6,400.6 763.9,400.6 770.1,400.6 776.3,400.6 782.5,400.6 788.7,400.6 795.0,400.6 801.2,400.6 807.4,417.3 813.6,417.3 819.8,417.3 826.1,417.3 832.3,417.3 838.5,417.3 844.7,417.3 851.0,417.3 857.2,417.3 863.4,417.3 869.6,417.3 875.8,417.3 882.1,417.3 888.3,417.3 894.5,417.3 900.7,417.3 906.9,417.3 913.2,417.3 919.4,417.3 925.6,417.3 931.8,417.3 938.0,417.3 944.3,417.3 950.5,417.3 956.7,442.2 962.9,442.2 969.2,442.2 975.4,442.2 981.6,442.2 987.8,442.2 994.0,442.2 1000.3,442.2 1006.5,442.2 1012.7,442.2 1025.1,442.2 1056.2,442.2 1093.6,442.2 1112.2,442.8 1124.7,442.8 1162.0,442.8" fill="none" stroke="#dc2626" stroke-width="2.5" stroke-linejoin="round" stroke-linecap="round"/>
<line x1="880" y1="35" x2="904" y2="35" stroke="#dc2626" stroke-width="3"/>
<text x="911" y="40" font-family="Arial, sans-serif" font-size="13" fill="#374151">8G JD</text>
<polyline points="446.6,488.0 452.8,488.0 459.0,488.0 465.3,488.0 471.5,488.0 477.7,488.0 483.9,488.0 490.1,488.0 496.4,488.0 502.6,488.0 508.8,488.0 515.0,488.0 521.2,488.0 527.5,488.0 533.7,488.0 539.9,488.0 546.1,488.0 552.3,488.0 558.6,488.0 564.8,488.0 571.0,488.0 577.2,488.0 583.5,488.0 589.7,488.0 595.9,488.0 664.3,490.1 670.5,490.1 676.8,490.1 683.0,490.1 689.2,490.1 695.4,490.1 701.7,490.1 707.9,490.1 714.1,490.1 720.3,490.1 726.5,490.1 732.8,490.1 739.0,490.1 745.2,490.1 751.4,490.1 757.6,490.1 763.9,490.1 770.1,490.1 776.3,490.1 782.5,490.1 788.7,490.1 795.0,490.1 801.2,490.1 807.4,490.1 813.6,490.1" fill="none" stroke="#9333ea" stroke-width="2.5" stroke-linejoin="round" stroke-linecap="round"/>
<line x1="1010" y1="35" x2="1034" y2="35" stroke="#9333ea" stroke-width="3"/>
<text x="1041" y="40" font-family="Arial, sans-serif" font-size="13" fill="#374151">8G PDD</text>
<polyline points="204.0,525.4 210.2,525.4 216.4,525.4 222.6,525.4 228.9,525.4 235.1,525.4 241.3,525.4 247.5,525.4 253.7,525.4 260.0,525.4 266.2,525.4 272.4,525.4 278.6,525.4 284.8,525.4 291.1,525.4 297.3,525.4 303.5,525.4 309.7,525.4 316.0,525.4 322.2,525.4 328.4,525.4 334.6,525.4 340.8,525.4 347.1,525.4 353.3,525.4 359.5,525.4 365.7,525.4 371.9,525.4 378.2,525.4 384.4,525.4 390.6,525.4 396.8,525.4 403.0,525.4 409.3,525.4 415.5,525.4 421.7,525.4 427.9,525.4 434.2,525.4 440.4,525.4 446.6,525.4 452.8,525.4 459.0,525.4 465.3,525.4 471.5,525.4 477.7,525.4 483.9,525.4 539.9,467.8 546.1,467.8 552.3,467.8 558.6,467.8 564.8,467.8 571.0,467.8 577.2,467.8 583.5,467.8 589.7,467.8 595.9,467.8 602.1,467.8 608.3,467.8 614.6,467.8 620.8,467.8 627.0,467.8 633.2,467.8 639.4,467.8 645.7,467.8 651.9,467.8 658.1,467.8 664.3,467.8 670.5,467.8 676.8,467.8 683.0,467.8 689.2,467.8 962.9,497.1 969.2,497.1 975.4,497.1" fill="none" stroke="#ea580c" stroke-width="2.5" stroke-linejoin="round" stroke-linecap="round"/>
<line x1="620" y1="59" x2="644" y2="59" stroke="#ea580c" stroke-width="3"/>
<text x="651" y="64" font-family="Arial, sans-serif" font-size="13" fill="#374151">8G Tmall</text>
<text x="600.0" y="602" text-anchor="middle" font-family="Arial, sans-serif" font-size="12" fill="#9ca3af">Hourly minimum from 5-minute samples · Beijing time</text>
</svg>